<?xml version="1.0" standalone="no"?>
<!DOCTYPE svg PUBLIC "-//W3C//DTD SVG 20010904//EN"
 "http://www.w3.org/TR/2001/REC-SVG-20010904/DTD/svg10.dtd">
<svg version="1.0" xmlns="http://www.w3.org/2000/svg"
 width="512.000000pt" height="512.000000pt" viewBox="0 0 512.000000 512.000000"
 preserveAspectRatio="xMidYMid meet">

<g transform="translate(0.000000,512.000000) scale(0.100000,-0.100000)"
fill="#000000" stroke="none">
<path d="M4210 4864 c-106 -22 -204 -77 -285 -159 -232 -231 -231 -590 1 -822
l72 -72 -32 -11 c-58 -19 -183 -108 -240 -171 -63 -70 -126 -185 -153 -279
-17 -60 -18 -114 -18 -685 0 -608 0 -621 21 -665 36 -78 115 -140 201 -158
l38 -8 3 -797 2 -797 520 0 520 0 0 798 0 797 51 12 c71 17 135 67 173 133
l31 55 0 635 0 635 -28 80 c-35 97 -82 177 -149 250 -54 60 -176 146 -232 165
l-34 11 67 67 c171 172 223 405 140 628 l-20 54 -70 -35 -69 -35 15 -30 c27
-53 40 -161 27 -230 -35 -191 -171 -327 -362 -362 -126 -24 -278 27 -374 126
-166 170 -164 438 3 605 101 101 243 147 376 122 73 -13 149 -47 206 -92 l36
-28 52 53 53 54 -53 42 c-138 110 -317 151 -489 114z m363 -1179 c189 -49 339
-201 382 -389 13 -56 15 -152 13 -651 l-3 -585 -33 -32 c-31 -31 -37 -33 -125
-38 l-92 -5 -3 -797 -2 -798 -150 0 -150 0 0 665 0 665 -75 0 -75 0 0 -665 0
-666 -147 3 -148 3 -3 798 -2 797 -89 0 c-81 0 -92 2 -119 25 -16 13 -35 37
-41 53 -9 21 -11 184 -9 623 3 587 4 595 26 653 33 88 69 145 131 206 63 61
151 112 232 134 77 21 404 21 482 1z"/>
<path d="M4260 3235 l0 -75 75 0 75 0 0 75 0 75 -75 0 -75 0 0 -75z"/>
<path d="M4260 2935 l0 -75 75 0 75 0 0 75 0 75 -75 0 -75 0 0 -75z"/>
<path d="M4260 2635 l0 -75 75 0 75 0 0 75 0 75 -75 0 -75 0 0 -75z"/>
<path d="M2412 4260 c-103 -27 -187 -75 -263 -150 -119 -118 -172 -243 -172
-410 -1 -89 3 -117 26 -183 35 -99 84 -176 158 -247 l59 -56 -53 -22 c-125
-53 -262 -186 -323 -317 -68 -144 -69 -150 -69 -655 0 -508 -2 -488 72 -571
39 -43 88 -72 141 -84 l32 -7 0 -659 0 -659 525 0 525 0 0 660 0 660 28 1 c80
2 168 65 211 149 l31 63 0 244 0 243 -75 0 -75 0 0 -231 c0 -196 -2 -235 -16
-259 -29 -47 -62 -60 -163 -60 l-91 0 0 -660 0 -660 -150 0 -150 0 0 515 0
515 -75 0 -75 0 0 -515 0 -515 -150 0 -150 0 0 659 0 659 -89 4 c-99 3 -122
15 -147 75 -21 49 -20 800 1 898 40 191 183 343 374 399 74 22 410 23 490 1
94 -25 162 -65 237 -139 115 -116 154 -221 154 -418 l0 -118 75 0 75 0 0 123
c0 151 -17 234 -71 346 -57 119 -178 240 -294 297 l-80 39 71 70 c280 279 208
743 -144 928 -126 67 -271 83 -410 47z m298 -159 c109 -41 208 -140 252 -251
17 -43 22 -77 22 -155 1 -95 -1 -104 -36 -177 -65 -137 -179 -223 -328 -250
-225 -39 -453 130 -492 366 -34 207 106 423 312 481 73 20 197 14 270 -14z"/>
<path d="M630 3759 c-203 -53 -372 -232 -416 -441 -30 -140 -4 -295 71 -424
15 -27 58 -78 94 -113 l66 -65 -78 -39 c-50 -25 -104 -63 -148 -104 -69 -65
-133 -149 -124 -163 3 -5 31 -23 62 -40 l57 -33 16 24 c32 50 107 124 164 161
103 67 159 78 385 78 108 0 216 -5 241 -11 187 -43 354 -220 389 -413 6 -33
11 -181 11 -331 0 -267 0 -273 -23 -306 -34 -50 -59 -59 -174 -59 l-103 0 0
-545 0 -545 -150 0 -150 0 0 410 0 410 -75 0 -75 0 0 -410 0 -411 -147 3 -148
3 -3 543 -2 542 -70 0 c-66 0 -73 2 -108 34 l-37 35 0 336 0 336 -36 9 c-96
26 -97 26 -106 -16 -4 -22 -8 -185 -8 -364 0 -318 1 -326 22 -367 39 -72 98
-119 186 -147 16 -5 17 -40 17 -551 l0 -545 520 0 520 0 0 544 0 543 54 6 c71
7 124 36 175 93 66 75 71 106 71 425 0 293 -8 374 -49 477 -57 143 -184 282
-320 350 l-77 39 72 76 c114 119 166 242 168 397 1 164 -54 300 -169 416 -151
152 -357 208 -565 153z m281 -149 c204 -63 334 -271 300 -477 -40 -235 -260
-398 -491 -363 -259 41 -428 303 -351 549 26 82 60 138 121 195 49 45 146 99
200 109 63 11 161 6 221 -13z"/>
<path d="M2470 2635 l0 -75 75 0 75 0 0 75 0 75 -75 0 -75 0 0 -75z"/>
<path d="M2470 2335 l0 -75 75 0 75 0 0 75 0 75 -75 0 -75 0 0 -75z"/>
<path d="M670 2185 l0 -75 75 0 75 0 0 75 0 75 -75 0 -75 0 0 -75z"/>
<path d="M672 1888 l3 -73 73 -3 72 -3 0 76 0 75 -75 0 -76 0 3 -72z"/>
</g>
</svg>
