<?xml version="1.0" standalone="no"?>
<!DOCTYPE svg PUBLIC "-//W3C//DTD SVG 20010904//EN"
 "http://www.w3.org/TR/2001/REC-SVG-20010904/DTD/svg10.dtd">
<svg version="1.0" xmlns="http://www.w3.org/2000/svg"
 width="512.000000pt" height="512.000000pt" viewBox="0 0 512.000000 512.000000"
 preserveAspectRatio="xMidYMid meet">

<g transform="translate(0.000000,512.000000) scale(0.100000,-0.100000)"
fill="#000000" stroke="none">
<path d="M1850 5100 c-120 -32 -195 -75 -286 -165 -176 -174 -232 -400 -158
-637 26 -80 98 -200 153 -252 17 -17 31 -33 31 -38 0 -4 -358 -8 -795 -8
l-795 0 0 -2000 0 -2000 870 0 869 0 -30 68 c-98 218 -179 413 -188 452 -62
270 127 545 406 592 336 56 635 -272 549 -603 -11 -42 -191 -466 -213 -501 -2
-5 388 -8 866 -8 l871 0 0 795 c0 437 4 795 8 795 5 0 21 -14 38 -31 89 -93
255 -170 399 -183 274 -26 553 160 642 429 23 68 27 97 27 195 0 98 -4 127
-27 195 -116 349 -511 527 -844 380 -61 -27 -164 -98 -202 -139 -14 -14 -28
-26 -33 -26 -4 0 -8 358 -8 795 l0 795 -795 0 c-437 0 -795 3 -795 6 0 3 25
33 55 66 109 121 173 303 161 459 -13 161 -67 280 -181 395 -128 130 -245 182
-420 190 -79 3 -116 0 -175 -16z m282 -209 c218 -75 339 -312 268 -525 -21
-64 -83 -160 -130 -201 -91 -81 -79 -246 23 -329 l39 -31 731 -5 732 -5 5
-732 c5 -720 5 -732 26 -759 37 -50 88 -84 144 -95 83 -17 125 -2 213 77 116
105 203 140 335 132 222 -13 392 -194 392 -418 0 -346 -389 -541 -669 -335
-34 25 -64 52 -67 60 -11 26 -104 65 -158 65 -71 0 -147 -37 -185 -91 l-31
-42 0 -724 0 -723 -610 0 c-335 0 -610 2 -610 4 0 2 16 39 35 81 68 148 93
286 76 416 -31 232 -165 425 -373 534 -191 101 -445 101 -637 0 -231 -122
-374 -357 -374 -615 1 -115 19 -197 72 -320 23 -51 41 -95 41 -97 0 -2 -272
-3 -605 -3 l-605 0 0 1795 0 1795 720 0 c791 0 745 -4 807 62 31 33 63 109 63
151 0 51 -24 102 -69 151 -75 79 -110 134 -131 204 -68 219 47 442 269 524 65
23 193 23 263 -1z"/>
</g>
</svg>
