<svg xmlns="http://www.w3.org/2000/svg" width="512" height="512" viewBox="0 0 512 512" version="1.1"><path d="M 189.500 0.649 C 168.715 4.977, 152.353 17.138, 143.951 34.500 C 138.402 45.966, 136.657 54.324, 137.343 66.137 C 138.233 81.457, 143.874 94.672, 154.188 105.597 C 156.835 108.400, 159 110.987, 159 111.347 C 159 111.706, 123.225 112, 79.500 112 L 0 112 0 312 L 0 512 86.985 512 L 173.971 512 172.046 507.250 C 170.286 502.906, 161.140 481.898, 156.265 471 C 149.589 456.076, 149.726 441.637, 156.679 427.379 C 164.862 410.597, 184.411 399.381, 203.223 400.674 C 232.563 402.690, 254.174 431.328, 247.571 459.440 C 246.674 463.257, 244.430 469.782, 242.583 473.940 C 240.737 478.098, 237.545 485.325, 235.491 490 C 233.437 494.675, 230.461 501.344, 228.878 504.820 C 227.295 508.296, 226 511.333, 226 511.570 C 226 511.806, 265.150 512, 313 512 L 400 512 400 433 C 400 374.278, 400.294 354, 401.146 354 C 401.777 354, 404.364 355.938, 406.896 358.306 C 417.433 368.161, 430.834 373.784, 445.863 374.657 C 457.676 375.343, 466.034 373.598, 477.500 368.049 C 493.439 360.336, 506.730 343.615, 510.172 326.943 C 511.324 321.366, 511.567 333.176, 512.008 416.006 C 512.333 477.322, 512.515 439.738, 512.515 311 C 512.515 178.951, 512.339 143.445, 512 207 C 511.717 260.075, 511.371 302.375, 511.232 301 C 510.837 297.101, 508.409 289.732, 505.584 283.858 C 499.505 271.215, 485.032 258.167, 471.392 253.032 C 449.617 244.835, 424.288 249.675, 407.458 265.250 C 404.041 268.412, 400.965 271, 400.623 271 C 400.280 271, 400 235.225, 400 191.500 L 400 112 321.167 112 C 277.808 112, 242.043 111.710, 241.688 111.355 C 241.333 111, 243.658 107.913, 246.855 104.496 C 252.674 98.275, 257.471 89.874, 260.556 80.500 C 262.724 73.913, 263.496 61.105, 262.214 53 C 258.266 28.041, 238.187 6.540, 214.047 1.423 C 207.955 0.131, 194.084 -0.306, 189.500 0.649 M 188 22.932 C 179.615 25.715, 176.188 27.806, 170.547 33.584 C 160.854 43.512, 156.807 55.863, 158.929 69.039 C 160.345 77.832, 163.888 84.738, 170.742 92.065 C 177.753 99.560, 180.004 104.258, 179.991 111.372 C 179.979 117.973, 175.838 125.454, 169.931 129.548 L 165.672 132.500 93.336 132.775 L 21 133.051 21 312.025 L 21 491 81.458 491 L 141.916 491 139.080 484.679 C 131.995 468.888, 130.606 463.321, 130.552 450.500 C 130.496 436.949, 131.694 430.909, 136.550 420.272 C 144.833 402.128, 159.443 389.246, 179.500 382.403 C 186.438 380.036, 189.093 379.670, 199.500 379.647 C 209.240 379.626, 212.912 380.055, 219 381.924 C 242.205 389.050, 258.614 404.995, 266.913 428.484 C 269.051 434.536, 269.397 437.287, 269.435 448.500 C 269.471 459.287, 269.094 462.730, 267.217 468.728 C 265.389 474.572, 260.417 486.589, 258.313 490.250 C 258.076 490.663, 285.134 491, 318.441 491 L 379 491 379 419.968 C 379 341.473, 378.707 345.098, 385.528 339.109 C 390.771 334.506, 395.473 332.730, 402.189 332.814 C 409.180 332.902, 412.718 334.640, 420.481 341.803 C 437.781 357.766, 461.830 357.646, 478.354 341.514 C 492.655 327.552, 495.008 306.154, 484.110 289.171 C 475.471 275.708, 458.442 268.171, 442.716 270.850 C 433.711 272.384, 425.303 276.773, 419.358 283.045 C 411.596 291.233, 403.436 293.709, 393.763 290.811 C 388.516 289.239, 381.454 282.296, 380.084 277.363 C 379.367 274.783, 379.009 250.175, 379.006 203.250 L 379 133 307.885 133 L 236.771 133 231.929 130.365 C 225.765 127.010, 222.070 121.474, 220.735 113.596 C 219.807 108.118, 219.934 106.966, 221.984 102.227 C 223.239 99.327, 225.444 95.951, 226.883 94.726 C 244.168 80.010, 246.547 54.032, 232.242 36.209 C 222.194 23.688, 203.042 17.941, 188 22.932 M 0.490 312 C 0.490 422.275, 0.607 467.388, 0.750 412.250 C 0.893 357.112, 0.893 266.888, 0.750 211.750 C 0.607 156.612, 0.490 201.725, 0.490 312" stroke="none" fill="#030303" fill-rule="evenodd"/><path d="" stroke="none" fill="#080404" fill-rule="evenodd"/><path d="" stroke="none" fill="#040404" fill-rule="evenodd"/></svg>